<svg width="40" height="40" viewBox="0 0 40 40" fill="none" xmlns="http://www.w3.org/2000/svg">
  <rect x="2" y="2" width="36" height="36" rx="9" fill="#dc2626"/>
  <g opacity="0.4">
    <line x1="9.5" y1="20" x2="9.5" y2="22" stroke="#ffffff" stroke-width="1" stroke-linecap="round"/>
    <line x1="9.5" y1="28" x2="9.5" y2="30" stroke="#ffffff" stroke-width="1" stroke-linecap="round"/>
    <rect x="7.75" y="22" width="3.5" height="6" rx="0.5" fill="#ffffff"/>
  </g>
  <g opacity="0.6">
    <line x1="16" y1="15" x2="16" y2="17" stroke="#ffffff" stroke-width="1" stroke-linecap="round"/>
    <line x1="16" y1="27" x2="16" y2="29" stroke="#ffffff" stroke-width="1" stroke-linecap="round"/>
    <rect x="14.25" y="17" width="3.5" height="10" rx="0.5" fill="#ffffff"/>
  </g>
  <rect x="20.5" y="9.5" width="9" height="21" rx="2.5" fill="none" stroke="#facc15" stroke-width="1.2" opacity="0.6"/>
  <line x1="25" y1="11" x2="25" y2="13" stroke="#ffffff" stroke-width="1.2" stroke-linecap="round"/>
  <line x1="25" y1="27" x2="25" y2="29" stroke="#ffffff" stroke-width="1.2" stroke-linecap="round"/>
  <rect x="22.75" y="13" width="4.5" height="14" rx="0.8" fill="#ffffff"/>
  <path d="M 30 4 L 31.2 7.8 L 35 9 L 31.2 10.2 L 30 14 L 28.8 10.2 L 25 9 L 28.8 7.8 Z" fill="#facc15"/>
  <circle cx="34" cy="14" r="0.9" fill="#facc15" opacity="0.8"/>
  <circle cx="33" cy="6" r="0.7" fill="#facc15" opacity="0.6"/>
</svg>
